<svg width="208" height="208" viewBox="0 0 208 208" fill="none" xmlns="http://www.w3.org/2000/svg">
<g clip-path="url(#clip0_1089_42892)">
<path d="M103.7 0C46.4 0 0 46.4 0 103.7C0 161 46.4 207.4 103.7 207.4C161 207.4 207.4 161 207.4 103.7C207.4 46.4 160.9 0 103.7 0ZM142 148.3H123.4V138.1C123.4 138.1 112.2 150.2 94.6 150.2C71.4 150.2 50.9 129.8 50.9 103.7C50.9 77.6 71.4 57.2 94.6 57.2C112.3 57.2 123.4 69.3 123.4 69.3V59.4H142V148.3ZM160.6 150.2C155.5 150.2 151.3 146 151.3 140.9C151.3 135.8 155.5 131.6 160.6 131.6C165.7 131.6 169.9 135.8 169.9 140.9C169.8 146 165.7 150.2 160.6 150.2Z" fill="#E6F4F3"/>
<path d="M96.5 74C82.6 74 69.5 87 69.5 103.7C69.5 120.4 82.5 133.4 96.5 133.4C110.4 133.4 123.5 120.4 123.5 103.7C123.4 87 110.4 74 96.5 74Z" fill="#E6F4F3"/>
</g>
<defs>
<clipPath id="clip0_1089_42892">
<rect width="207.3" height="207.3" fill="white"/>
</clipPath>
</defs>
</svg>
